<mxfile host="app.diagrams.net" modified="2022-10-18T01:56:39.014Z" agent="5.0 (Macintosh; Intel Mac OS X 10_15_7) AppleWebKit/537.36 (KHTML, like Gecko) Chrome/104.0.0.0 Safari/537.36" etag="OSF6JWfGi0rl22X7FsKI" version="20.4.1" type="github">
  <diagram id="qBNz5r1vrhGDj_zW8N9r" name="第 1 页">
    <mxGraphModel dx="850" dy="500" grid="1" gridSize="10" guides="1" tooltips="1" connect="1" arrows="1" fold="1" page="1" pageScale="1" pageWidth="827" pageHeight="1169" math="0" shadow="0">
      <root>
        <mxCell id="0" />
        <mxCell id="1" parent="0" />
        <mxCell id="T-0MP627r_fHBgImVUF9-17" value="" style="edgeStyle=orthogonalEdgeStyle;rounded=0;orthogonalLoop=1;jettySize=auto;html=1;startArrow=classic;startFill=1;" parent="1" source="T-0MP627r_fHBgImVUF9-1" target="T-0MP627r_fHBgImVUF9-2" edge="1">
          <mxGeometry relative="1" as="geometry" />
        </mxCell>
        <mxCell id="T-0MP627r_fHBgImVUF9-1" value="检索页面及结果展示页面" style="rounded=0;whiteSpace=wrap;html=1;" parent="1" vertex="1">
          <mxGeometry x="160" y="240" width="90" height="50" as="geometry" />
        </mxCell>
        <mxCell id="T-0MP627r_fHBgImVUF9-18" value="" style="edgeStyle=orthogonalEdgeStyle;rounded=0;orthogonalLoop=1;jettySize=auto;html=1;startArrow=classic;startFill=1;" parent="1" source="T-0MP627r_fHBgImVUF9-2" target="T-0MP627r_fHBgImVUF9-3" edge="1">
          <mxGeometry relative="1" as="geometry" />
        </mxCell>
        <mxCell id="T-0MP627r_fHBgImVUF9-2" value="Web服务器" style="rounded=0;whiteSpace=wrap;html=1;" parent="1" vertex="1">
          <mxGeometry x="160" y="330" width="90" height="50" as="geometry" />
        </mxCell>
        <mxCell id="T-0MP627r_fHBgImVUF9-19" value="" style="edgeStyle=orthogonalEdgeStyle;rounded=0;orthogonalLoop=1;jettySize=auto;html=1;startArrow=classic;startFill=1;" parent="1" source="T-0MP627r_fHBgImVUF9-3" target="T-0MP627r_fHBgImVUF9-4" edge="1">
          <mxGeometry relative="1" as="geometry" />
        </mxCell>
        <mxCell id="T-0MP627r_fHBgImVUF9-3" value="查询分析器" style="rounded=0;whiteSpace=wrap;html=1;" parent="1" vertex="1">
          <mxGeometry x="160" y="420" width="90" height="50" as="geometry" />
        </mxCell>
        <mxCell id="T-0MP627r_fHBgImVUF9-20" value="" style="edgeStyle=orthogonalEdgeStyle;rounded=0;orthogonalLoop=1;jettySize=auto;html=1;startArrow=classic;startFill=1;" parent="1" source="T-0MP627r_fHBgImVUF9-4" target="T-0MP627r_fHBgImVUF9-5" edge="1">
          <mxGeometry relative="1" as="geometry" />
        </mxCell>
        <mxCell id="T-0MP627r_fHBgImVUF9-4" value="检索与索引器" style="rounded=0;whiteSpace=wrap;html=1;" parent="1" vertex="1">
          <mxGeometry x="160" y="510" width="90" height="50" as="geometry" />
        </mxCell>
        <mxCell id="T-0MP627r_fHBgImVUF9-32" value="" style="edgeStyle=orthogonalEdgeStyle;rounded=0;orthogonalLoop=1;jettySize=auto;html=1;startArrow=classic;startFill=1;" parent="1" source="T-0MP627r_fHBgImVUF9-5" target="T-0MP627r_fHBgImVUF9-10" edge="1">
          <mxGeometry relative="1" as="geometry" />
        </mxCell>
        <mxCell id="T-0MP627r_fHBgImVUF9-5" value="代码信息索引库" style="rounded=0;whiteSpace=wrap;html=1;" parent="1" vertex="1">
          <mxGeometry x="160" y="600" width="90" height="50" as="geometry" />
        </mxCell>
        <mxCell id="T-0MP627r_fHBgImVUF9-27" value="" style="edgeStyle=orthogonalEdgeStyle;rounded=0;orthogonalLoop=1;jettySize=auto;html=1;startArrow=classic;startFill=1;" parent="1" source="T-0MP627r_fHBgImVUF9-6" target="T-0MP627r_fHBgImVUF9-7" edge="1">
          <mxGeometry relative="1" as="geometry" />
        </mxCell>
        <mxCell id="T-0MP627r_fHBgImVUF9-6" value="系统维护与管理页面" style="rounded=0;whiteSpace=wrap;html=1;" parent="1" vertex="1">
          <mxGeometry x="360" y="240" width="90" height="50" as="geometry" />
        </mxCell>
        <mxCell id="T-0MP627r_fHBgImVUF9-7" value="管理模块" style="rounded=0;whiteSpace=wrap;html=1;" parent="1" vertex="1">
          <mxGeometry x="360" y="330" width="90" height="50" as="geometry" />
        </mxCell>
        <mxCell id="T-0MP627r_fHBgImVUF9-8" value="网页结构信息化抽取" style="rounded=0;whiteSpace=wrap;html=1;" parent="1" vertex="1">
          <mxGeometry x="360" y="420" width="90" height="50" as="geometry" />
        </mxCell>
        <mxCell id="T-0MP627r_fHBgImVUF9-33" value="" style="edgeStyle=orthogonalEdgeStyle;rounded=0;orthogonalLoop=1;jettySize=auto;html=1;startArrow=classic;startFill=1;" parent="1" source="T-0MP627r_fHBgImVUF9-10" target="T-0MP627r_fHBgImVUF9-15" edge="1">
          <mxGeometry relative="1" as="geometry" />
        </mxCell>
        <mxCell id="T-0MP627r_fHBgImVUF9-10" value="代码信息数据库" style="rounded=0;whiteSpace=wrap;html=1;" parent="1" vertex="1">
          <mxGeometry x="360" y="600" width="90" height="50" as="geometry" />
        </mxCell>
        <mxCell id="T-0MP627r_fHBgImVUF9-30" value="" style="edgeStyle=orthogonalEdgeStyle;rounded=0;orthogonalLoop=1;jettySize=auto;html=1;startArrow=none;startFill=0;" parent="1" source="T-0MP627r_fHBgImVUF9-12" target="T-0MP627r_fHBgImVUF9-13" edge="1">
          <mxGeometry relative="1" as="geometry" />
        </mxCell>
        <mxCell id="T-0MP627r_fHBgImVUF9-12" value="网络爬虫" style="rounded=0;whiteSpace=wrap;html=1;" parent="1" vertex="1">
          <mxGeometry x="560" y="330" width="90" height="50" as="geometry" />
        </mxCell>
        <mxCell id="T-0MP627r_fHBgImVUF9-31" value="" style="edgeStyle=orthogonalEdgeStyle;rounded=0;orthogonalLoop=1;jettySize=auto;html=1;startArrow=none;startFill=0;entryX=0.5;entryY=0;entryDx=0;entryDy=0;" parent="1" source="T-0MP627r_fHBgImVUF9-13" target="T-0MP627r_fHBgImVUF9-15" edge="1">
          <mxGeometry relative="1" as="geometry">
            <mxPoint x="605" y="550" as="targetPoint" />
          </mxGeometry>
        </mxCell>
        <mxCell id="T-0MP627r_fHBgImVUF9-13" value="网页分析器" style="rounded=0;whiteSpace=wrap;html=1;" parent="1" vertex="1">
          <mxGeometry x="560" y="420" width="90" height="50" as="geometry" />
        </mxCell>
        <mxCell id="T-0MP627r_fHBgImVUF9-15" value="URL信息数据库" style="rounded=0;whiteSpace=wrap;html=1;" parent="1" vertex="1">
          <mxGeometry x="560" y="600" width="90" height="50" as="geometry" />
        </mxCell>
        <mxCell id="T-0MP627r_fHBgImVUF9-16" value="" style="endArrow=none;dashed=1;html=1;rounded=0;" parent="1" edge="1">
          <mxGeometry width="50" height="50" relative="1" as="geometry">
            <mxPoint x="119" y="310" as="sourcePoint" />
            <mxPoint x="700" y="310" as="targetPoint" />
          </mxGeometry>
        </mxCell>
        <mxCell id="T-0MP627r_fHBgImVUF9-21" value="" style="endArrow=none;dashed=1;html=1;rounded=0;" parent="1" edge="1">
          <mxGeometry width="50" height="50" relative="1" as="geometry">
            <mxPoint x="123" y="580" as="sourcePoint" />
            <mxPoint x="704" y="580" as="targetPoint" />
          </mxGeometry>
        </mxCell>
        <mxCell id="T-0MP627r_fHBgImVUF9-24" value="" style="endArrow=classic;html=1;rounded=0;exitX=0;exitY=0.5;exitDx=0;exitDy=0;entryX=0;entryY=0.5;entryDx=0;entryDy=0;edgeStyle=orthogonalEdgeStyle;" parent="1" source="T-0MP627r_fHBgImVUF9-4" target="T-0MP627r_fHBgImVUF9-2" edge="1">
          <mxGeometry width="50" height="50" relative="1" as="geometry">
            <mxPoint x="390" y="480" as="sourcePoint" />
            <mxPoint x="440" y="430" as="targetPoint" />
            <Array as="points">
              <mxPoint x="160" y="530" />
              <mxPoint x="130" y="530" />
              <mxPoint x="130" y="355" />
            </Array>
          </mxGeometry>
        </mxCell>
        <mxCell id="T-0MP627r_fHBgImVUF9-25" value="" style="endArrow=classic;html=1;rounded=0;exitX=0.5;exitY=1;exitDx=0;exitDy=0;entryX=0.5;entryY=0;entryDx=0;entryDy=0;startArrow=classic;startFill=1;" parent="1" source="T-0MP627r_fHBgImVUF9-8" target="T-0MP627r_fHBgImVUF9-10" edge="1">
          <mxGeometry width="50" height="50" relative="1" as="geometry">
            <mxPoint x="470" y="500" as="sourcePoint" />
            <mxPoint x="510" y="450" as="targetPoint" />
          </mxGeometry>
        </mxCell>
        <mxCell id="T-0MP627r_fHBgImVUF9-29" value="" style="edgeStyle=orthogonalEdgeStyle;rounded=0;orthogonalLoop=1;jettySize=auto;html=1;startArrow=none;startFill=0;" parent="1" source="T-0MP627r_fHBgImVUF9-28" target="T-0MP627r_fHBgImVUF9-12" edge="1">
          <mxGeometry relative="1" as="geometry" />
        </mxCell>
        <mxCell id="T-0MP627r_fHBgImVUF9-28" value="Internet" style="ellipse;whiteSpace=wrap;html=1;" parent="1" vertex="1">
          <mxGeometry x="550" y="240" width="110" height="50" as="geometry" />
        </mxCell>
        <mxCell id="T-0MP627r_fHBgImVUF9-34" value="" style="endArrow=classic;startArrow=classic;html=1;rounded=0;exitX=1;exitY=0.5;exitDx=0;exitDy=0;entryX=0;entryY=0.5;entryDx=0;entryDy=0;" parent="1" source="T-0MP627r_fHBgImVUF9-4" target="T-0MP627r_fHBgImVUF9-8" edge="1">
          <mxGeometry width="50" height="50" relative="1" as="geometry">
            <mxPoint x="280" y="540" as="sourcePoint" />
            <mxPoint x="330" y="490" as="targetPoint" />
          </mxGeometry>
        </mxCell>
        <mxCell id="T-0MP627r_fHBgImVUF9-35" value="" style="endArrow=classic;startArrow=classic;html=1;rounded=0;entryX=0.5;entryY=0;entryDx=0;entryDy=0;exitX=1;exitY=0.5;exitDx=0;exitDy=0;" parent="1" source="T-0MP627r_fHBgImVUF9-8" target="T-0MP627r_fHBgImVUF9-15" edge="1">
          <mxGeometry width="50" height="50" relative="1" as="geometry">
            <mxPoint x="440" y="470" as="sourcePoint" />
            <mxPoint x="490" y="420" as="targetPoint" />
          </mxGeometry>
        </mxCell>
        <mxCell id="T-0MP627r_fHBgImVUF9-36" value="数据&lt;br&gt;存储层" style="text;html=1;align=center;verticalAlign=middle;resizable=0;points=[];autosize=1;strokeColor=none;fillColor=none;" parent="1" vertex="1">
          <mxGeometry x="70" y="610" width="60" height="40" as="geometry" />
        </mxCell>
        <mxCell id="T-0MP627r_fHBgImVUF9-37" value="逻辑层" style="text;html=1;align=center;verticalAlign=middle;resizable=0;points=[];autosize=1;strokeColor=none;fillColor=none;" parent="1" vertex="1">
          <mxGeometry x="70" y="430" width="60" height="30" as="geometry" />
        </mxCell>
        <mxCell id="T-0MP627r_fHBgImVUF9-38" value="表现层" style="text;html=1;align=center;verticalAlign=middle;resizable=0;points=[];autosize=1;strokeColor=none;fillColor=none;" parent="1" vertex="1">
          <mxGeometry x="70" y="260" width="60" height="30" as="geometry" />
        </mxCell>
      </root>
    </mxGraphModel>
  </diagram>
</mxfile>
